<!-- Generator: Adobe Illustrator 19.0.0, SVG Export Plug-In  -->
<svg version="1.1" baseProfile="tiny"
	 xmlns="http://www.w3.org/2000/svg" xmlns:xlink="http://www.w3.org/1999/xlink" xmlns:a="http://ns.adobe.com/AdobeSVGViewerExtensions/3.0/"
	 x="0px" y="0px" width="40.2px" height="62.7px" viewBox="0 0 40.2 62.7" xml:space="preserve">
<defs>
</defs>
<path id="XMLID_16_" d="M20.1,37.2L20.1,37.2c-10.3,0-18.6-8.3-18.6-18.6v0C1.5,8.3,9.8,0,20.1,0h0c10.3,0,18.6,8.3,18.6,18.6v0
	C38.7,28.9,30.4,37.2,20.1,37.2z"/>
<path id="XMLID_15_" fill="none" stroke="#FFFFFF" stroke-width="5" stroke-miterlimit="10" d="M20.1,61.2L20.1,61.2
	c-10.3,0-18.6-8.3-18.6-18.6v0C1.5,32.4,9.8,24,20.1,24h0c10.3,0,18.6,8.3,18.6,18.6v0C38.7,52.9,30.4,61.2,20.1,61.2z"/>
</svg>
