<svg xmlns="http://www.w3.org/2000/svg" viewBox="0 0 467 581.7">
  <filter id="dropshadow" height="130%">
  <feGaussianBlur in="SourceAlpha" stdDeviation="20"/> <!-- stdDeviation is how much to blur -->
  <feOffset dx="0" dy="30" result="offsetblur"/> <!-- how much to offset -->
  <feComponentTransfer xmlns="http://www.w3.org/2000/svg">
        <feFuncA type="linear" slope="0.1"/>
      </feComponentTransfer>
  <feMerge>
    <feMergeNode/> <!-- this contains the offset blurred image -->
    <feMergeNode in="SourceGraphic"/> <!-- this contains the element that the filter is applied to -->
  </feMerge>
  </filter>
  <g style="filter:url(#dropshadow)">
    <path d="M337.1 345.6l-3.5-3.5-131.7 131.7c1.4.9 2.9 1.8 4.3 2.7l130.9-130.9zM330.8 259.7v7.1l44.5-44.5v-7.1zM213.2 377.3l-57.8 57.8c1.1 1.2 2.3 2.4 3.5 3.6l60.5-60.5c-2.1-.2-4.2-.5-6.2-.9zM338 150.552l-3.535-3.535 32.81-32.81 3.535 3.536zM174.5 362.1c-1.4-.9-2.8-1.9-4.2-2.9L157.5 372l3.5 3.5 13.5-13.4zM375.3 154.2l-44.5 44.5v7.1l44.5-44.5zM84.2 201.3l98.4-98.4c.9-3 1.6-6.1 2.2-9.2L84.2 194.3v7zM152.559 101.003l-32.244 32.244-3.536-3.536 32.244-32.244zM127.2 335.4l-3.5-3.5-22.7 22.7c.7 1.6 1.5 3.2 2.3 4.8l23.9-24zM110.5 265l18.2-18.2v-7L107 261.5zM173 393.4l-3.5-3.5-28.7 28.7c1 1.3 2.1 2.6 3.2 3.9l29-29.1zM347.5 319l27.8-27.7v-7.1L344 315.5zM128.7 283.8L88.5 324c.6 1.6 1.2 3.4 1.8 5.2l38.3-38.3v-7.1zM84.2 241.3l44.5-44.5c.1-2.6.3-5.2.6-7.7l-45.2 45.2v7z"/>
    <path fill="#3C92CA" d="M230.4 236.9c3.2 0 5.7-2.5 5.7-5.7v-28.1c0-3.2-2.5-5.7-5.7-5.7s-5.7 2.5-5.7 5.7v28.1c0 3.1 2.5 5.7 5.7 5.7z"/>
    <path fill="#510B0B" d="M230.4 521.7l-4.2-1.8c-71.1-31.1-113.7-85.2-136.9-125.1-25.1-43.1-33.4-78.7-33.7-80.2l-.3-1.2V109.9l72.5-72.5 26.5 19.9c3.9 2.9 7.7 1.7 9.7.7 3-1.5 6.3-5 6.3-10V37.4h46v48.4c0 27.2-11.2 53.7-30.8 72.6l-13.7 13.3c-8.2 7.9-12.9 19-12.9 30.4v87.6c0 11.5 4.7 22.6 13 30.5l7 6.7c28.9 27.8 74.2 27.8 103.1 0l7-6.7c8.3-7.9 13-19.1 13-30.5v-87.6c0-11.4-4.7-22.5-12.9-30.4l-13.7-13.3c-19.6-18.9-30.8-45.4-30.8-72.6V37.4h46v10.5c0 5.1 3.3 8.5 6.3 10 2 1 5.8 2.2 9.7-.7l26.5-19.9 72.5 72.5v203.5l-.3 1.2c-.3 1.5-8.6 37.1-33.7 80.2-23.2 39.9-65.8 94-136.9 125.1l-4.3 1.9zM76.4 311c1.5 6.1 10.2 37.4 31.5 73.9 21.1 36.2 59.4 84.9 122.6 113.9 63.1-29 101.4-77.7 122.6-113.9 21.3-36.5 29.9-67.8 31.5-73.9V118.6L331 65.1l-12 9c-9.3 7-21.1 8-31.7 2.7-7.8-3.9-13.5-10.5-16.2-18.3h-5.8v27.4c0 21.6 8.9 42.5 24.4 57.5l13.7 13.3c12.3 11.9 19.3 28.5 19.3 45.5v87.6c0 17.1-7.1 33.8-19.5 45.7l-7 6.7a95.17 95.17 0 0 1-132.2 0l-7-6.7c-12.4-11.9-19.5-28.5-19.5-45.7v-87.6c0-17.1 7-33.7 19.3-45.5l13.7-13.3c15.5-15 24.4-35.9 24.4-57.5V58.4h-5.8c-2.7 7.8-8.4 14.4-16.2 18.3-10.6 5.3-22.4 4.3-31.7-2.7l-11.9-8.9-53.5 53.5V311z"/>
    <path fill="#3C92CA" d="M229.8 492.1l-1.1-.5c-46-22-84-57-112.9-104.1-22.3-36.4-31.7-68.1-34-76.9l-.1-.3V121.1l48-48 7.8 5.8c6.3 4.7 13.7 7.2 21.4 7.2 9.5 0 18.6-3.6 25.6-10.1l4.2-3.9v5.7c0 25.1-10.3 49.5-28.4 66.9L149.6 155c-11.7 11.3-18.4 27-18.4 43.2v95.4c0 16.3 6.7 32.1 18.5 43.3l12.6 12.1c37.9 36.3 97.2 36.3 135 0l12.6-12.1c11.7-11.3 18.5-27.1 18.5-43.3v-95.4c0-16.2-6.7-32-18.4-43.2l-10.7-10.4c-18-17.4-28.4-41.8-28.4-66.9v-5.9l4.2 3.9c7 6.5 16.3 10.2 25.6 10.2 7.7 0 15.1-2.5 21.4-7.2l7.8-5.8 48 48V310l-.1.3c-2.2 8.2-10.8 37.7-30.9 71.8-29.2 49.7-68.2 86.5-116 109.3l-1.1.7zM86.7 309.6c2.4 9.1 11.7 39.9 33.4 75.3 28.1 45.9 65 80.1 109.7 101.7 46.4-22.4 84.3-58.3 112.8-106.8 19.4-33.1 28-61.7 30.3-70.2V123.2l-43.5-43.5-4.3 3.2c-7.1 5.4-15.6 8.2-24.4 8.2-8.7 0-17.4-2.9-24.6-8 1.3 21.9 10.9 42.8 26.7 58l10.7 10.4c12.6 12.2 19.9 29.3 19.9 46.8v95.4c0 17.6-7.3 34.7-20 47l-12.6 12.1c-19.2 18.4-44.4 28.5-71 28.5s-51.8-10.1-71-28.5l-12.6-12.1c-12.7-12.2-20-29.3-20-46.9v-95.4c0-17.6 7.2-34.6 19.9-46.8l10.7-10.4c15.8-15.2 25.3-36.1 26.7-57.9-7.2 5.1-15.7 7.9-24.6 7.9-8.8 0-17.3-2.8-24.4-8.2l-4.3-3.2-43.5 43.5v186.3z"/>
    <path fill="#510B0B" d="M238.7 168.2H235.8V36.4h-11v131.8H222c-26.4 0-47.8 21.5-47.8 47.9v70.5c0 26.4 21.4 47.8 47.8 47.8h16.6c26.4 0 47.8-21.4 47.8-47.8V216c.1-26.4-21.3-47.8-47.7-47.8zm36.5 118.3c0 20.1-16.4 36.5-36.5 36.5h-16.6c-20.1 0-36.5-16.4-36.5-36.5V216c0-20.1 16.4-36.5 36.5-36.5h16.6c20.1 0 36.5 16.4 36.5 36.5v70.5z"/>
    <path fill="none" d="M229.8 489.4C121.5 437.6 88.4 325.8 84.2 309.9V122.1L130 76.4l6 4.5c6.7 5 14.6 7.7 22.9 7.7 10.5 0 20.1-4.1 27.3-10.8 0 24.5-10 48-27.6 65.1l-10.7 10.4c-12.2 11.8-19.1 28-19.1 45v95.4c0 17 6.9 33.3 19.2 45.1l12.6 12.1c38.7 37.1 99.8 37.1 138.5 0l12.6-12.1c12.3-11.8 19.2-28.1 19.2-45.1v-95.4c0-17-6.9-33.2-19.1-45l-10.7-10.4c-17.7-17-27.6-40.5-27.6-65.1v-.1c7.5 6.9 17.4 10.9 27.3 10.9 8.3 0 16.2-2.7 22.9-7.7l6-4.5 45.8 45.8V310c-2 7.6-10.6 37.1-30.6 71.2-29.1 49.2-67.8 85.6-115.1 108.2z"/>
    <path d="M230.4 236.9c3.2 0 5.7-2.5 5.7-5.7v-28.1c0-3.2-2.5-5.7-5.7-5.7s-5.7 2.5-5.7 5.7v28.1c0 3.1 2.5 5.7 5.7 5.7z"/>
    <path d="M230.4 521.7l-4.2-1.8c-71.1-31.1-113.7-85.2-136.9-125.1-25.1-43.1-33.4-78.7-33.7-80.2l-.3-1.2V109.9l72.5-72.5 26.5 19.9c3.9 2.9 7.7 1.7 9.7.7 3-1.5 6.3-5 6.3-10V37.4h46v48.4c0 27.2-11.2 53.7-30.8 72.6l-13.7 13.3c-8.2 7.9-12.9 19-12.9 30.4v87.6c0 11.5 4.7 22.6 13 30.5l7 6.7c28.9 27.8 74.2 27.8 103.1 0l7-6.7c8.3-7.9 13-19.1 13-30.5v-87.6c0-11.4-4.7-22.5-12.9-30.4l-13.7-13.3c-19.6-18.9-30.8-45.4-30.8-72.6V37.4h46v10.5c0 5.1 3.3 8.5 6.3 10 2 1 5.8 2.2 9.7-.7l26.5-19.9 72.5 72.5v203.5l-.3 1.2c-.3 1.5-8.6 37.1-33.7 80.2-23.2 39.9-65.8 94-136.9 125.1l-4.3 1.9zM76.4 311c1.5 6.1 10.2 37.4 31.5 73.9 21.1 36.2 59.4 84.9 122.6 113.9 63.1-29 101.4-77.7 122.6-113.9 21.3-36.5 29.9-67.8 31.5-73.9V118.6L331 65.1l-12 9c-9.3 7-21.1 8-31.7 2.7-7.8-3.9-13.5-10.5-16.2-18.3h-5.8v27.4c0 21.6 8.9 42.5 24.4 57.5l13.7 13.3c12.3 11.9 19.3 28.5 19.3 45.5v87.6c0 17.1-7.1 33.8-19.5 45.7l-7 6.7a95.17 95.17 0 0 1-132.2 0l-7-6.7c-12.4-11.9-19.5-28.5-19.5-45.7v-87.6c0-17.1 7-33.7 19.3-45.5l13.7-13.3c15.5-15 24.4-35.9 24.4-57.5V58.4h-5.8c-2.7 7.8-8.4 14.4-16.2 18.3-10.6 5.3-22.4 4.3-31.7-2.7l-11.9-8.9-53.5 53.5V311z"/>
    <path d="M229.8 492.1l-1.1-.5c-46-22-84-57-112.9-104.1-22.3-36.4-31.7-68.1-34-76.9l-.1-.3V121.1l48-48 7.8 5.8c6.3 4.7 13.7 7.2 21.4 7.2 9.5 0 18.6-3.6 25.6-10.1l4.2-3.9v5.7c0 25.1-10.3 49.5-28.4 66.9L149.6 155c-11.7 11.3-18.4 27-18.4 43.2v95.4c0 16.3 6.7 32.1 18.5 43.3l12.6 12.1c37.9 36.3 97.2 36.3 135 0l12.6-12.1c11.7-11.3 18.5-27.1 18.5-43.3v-95.4c0-16.2-6.7-32-18.4-43.2l-10.7-10.4c-18-17.4-28.4-41.8-28.4-66.9v-5.9l4.2 3.9c7 6.5 16.3 10.2 25.6 10.2 7.7 0 15.1-2.5 21.4-7.2l7.8-5.8 48 48V310l-.1.3c-2.2 8.2-10.8 37.7-30.9 71.8-29.2 49.7-68.2 86.5-116 109.3l-1.1.7zM86.7 309.6c2.4 9.1 11.7 39.9 33.4 75.3 28.1 45.9 65 80.1 109.7 101.7 46.4-22.4 84.3-58.3 112.8-106.8 19.4-33.1 28-61.7 30.3-70.2V123.2l-43.5-43.5-4.3 3.2c-7.1 5.4-15.6 8.2-24.4 8.2-8.7 0-17.4-2.9-24.6-8 1.3 21.9 10.9 42.8 26.7 58l10.7 10.4c12.6 12.2 19.9 29.3 19.9 46.8v95.4c0 17.6-7.3 34.7-20 47l-12.6 12.1c-19.2 18.4-44.4 28.5-71 28.5s-51.8-10.1-71-28.5l-12.6-12.1c-12.7-12.2-20-29.3-20-46.9v-95.4c0-17.6 7.2-34.6 19.9-46.8l10.7-10.4c15.8-15.2 25.3-36.1 26.7-57.9-7.2 5.1-15.7 7.9-24.6 7.9-8.8 0-17.3-2.8-24.4-8.2l-4.3-3.2-43.5 43.5v186.3z"/>
    <path d="M238.7 168.2H235.8V36.4h-11v131.8H222c-26.4 0-47.8 21.5-47.8 47.9v70.5c0 26.4 21.4 47.8 47.8 47.8h16.6c26.4 0 47.8-21.4 47.8-47.8V216c.1-26.4-21.3-47.8-47.7-47.8zm36.5 118.3c0 20.1-16.4 36.5-36.5 36.5h-16.6c-20.1 0-36.5-16.4-36.5-36.5V216c0-20.1 16.4-36.5 36.5-36.5h16.6c20.1 0 36.5 16.4 36.5 36.5v70.5z"/>
    </g>
</svg>
